<svg xmlns="http://www.w3.org/2000/svg" width="148" height="82" viewBox="0 0 148 82" fill="none"><g clip-path="url(#clip0_1243_195)"><path fill-rule="evenodd" clip-rule="evenodd" d="M1.94712 58.6063C1.1805 58.2969 0.841871 58.0261 0.841871 57.4845C0.841871 57.088 1.12877 56.6142 1.89068 56.6142C2.25662 56.6068 2.6176 56.702 2.93479 56.8898L3.13703 56.2757C2.75958 56.0754 2.33875 55.9773 1.9142 55.9904C0.832465 55.9904 0.112877 56.6674 0.112877 57.5716C0.112877 58.3839 0.677259 58.8819 1.58498 59.2252C2.33278 59.5202 2.62908 59.8393 2.62908 60.376C2.62908 60.9128 2.20109 61.3431 1.4674 61.3431C1.01674 61.3498 0.573384 61.2258 0.188128 60.9853L0 61.6187C0.430068 61.8693 0.916624 61.9994 1.41096 61.9959C2.72315 61.9959 3.34867 61.2125 3.34867 60.3132C3.34867 59.4138 2.87835 58.9931 1.93771 58.6063" fill="black"></path><path d="M5.03874 57.7271H4.31445V61.9047H5.03874V57.7271Z" fill="black"></path><path fill-rule="evenodd" clip-rule="evenodd" d="M4.6754 55.9785C4.55066 55.9785 4.43103 56.0295 4.34283 56.1201C4.25463 56.2108 4.20508 56.3338 4.20508 56.462C4.20508 56.5903 4.25463 56.7133 4.34283 56.804C4.43103 56.8946 4.55066 56.9456 4.6754 56.9456V56.9456C4.80013 56.9456 4.91976 56.8946 5.00796 56.804C5.09617 56.7133 5.14572 56.5903 5.14572 56.462C5.14572 56.3338 5.09617 56.2108 5.00796 56.1201C4.91976 56.0295 4.80013 55.9785 4.6754 55.9785Z" fill="black"></path><path fill-rule="evenodd" clip-rule="evenodd" d="M8.2294 57.6303C7.9617 57.6241 7.69748 57.6934 7.46535 57.8307C7.23322 57.9679 7.04204 58.1678 6.91251 58.4087V58.4087L6.87018 57.727H6.20703C6.23525 58.0751 6.24466 58.4184 6.24466 58.8584V61.9047H6.96895V59.3806L7.01598 59.0325C7.07836 58.8133 7.20657 58.6199 7.38227 58.4801C7.55797 58.3403 7.77217 58.2611 7.99424 58.254C8.67621 58.254 8.93488 58.8197 8.93488 59.4967V61.9143H9.64036V59.4096C9.64036 57.9591 8.78438 57.6303 8.2294 57.6303" fill="black"></path><path fill-rule="evenodd" clip-rule="evenodd" d="M12.6988 58.2325C12.9909 58.2273 13.2799 58.2953 13.5406 58.4308L13.7005 57.8554C13.3892 57.6981 13.0456 57.6202 12.6988 57.6281C12.4117 57.6148 12.125 57.6635 11.8574 57.7712C11.5898 57.8788 11.3471 58.043 11.145 58.253C10.9429 58.4631 10.7859 58.7144 10.6841 58.9907C10.5823 59.267 10.538 59.5622 10.5541 59.8572C10.5305 60.1357 10.5649 60.4162 10.655 60.68C10.7451 60.9438 10.8888 61.1848 11.0766 61.387C11.2644 61.5893 11.4919 61.748 11.744 61.8527C11.9962 61.9575 12.2671 62.0058 12.5388 61.9944C12.9339 61.9999 13.3254 61.9174 13.6864 61.7526L13.5641 61.1821C13.2852 61.3189 12.9796 61.3884 12.6705 61.3851C12.4769 61.3861 12.2852 61.3453 12.1079 61.2652C11.9306 61.1852 11.7716 61.0677 11.6412 60.9205C11.5109 60.7733 11.4121 60.5995 11.3512 60.4105C11.2903 60.2215 11.2687 60.0215 11.2878 59.8233C11.2687 59.6214 11.2911 59.4176 11.3534 59.2251C11.4157 59.0326 11.5166 58.8556 11.6496 58.7057C11.7825 58.5558 11.9446 58.4362 12.1253 58.3547C12.3061 58.2732 12.5014 58.2316 12.6988 58.2325" fill="black"></path><path fill-rule="evenodd" clip-rule="evenodd" d="M16.0605 57.6249C14.8989 57.6249 14.1793 58.592 14.1793 59.883C14.1555 60.1579 14.1892 60.4349 14.2782 60.6953C14.3672 60.9557 14.5093 61.1935 14.6951 61.3927C14.8809 61.592 15.106 61.748 15.3553 61.8504C15.6046 61.9528 15.8723 61.9992 16.1405 61.9863C16.6006 61.997 17.0577 61.9063 17.4809 61.7204L17.3492 61.1837C16.9993 61.3328 16.6226 61.4036 16.244 61.3916C16.0575 61.4046 15.8706 61.3755 15.6962 61.3065C15.5218 61.2375 15.3641 61.1302 15.2343 60.992C15.1044 60.8539 15.0054 60.6883 14.9442 60.5067C14.883 60.3252 14.8611 60.1321 14.88 59.941H17.702C17.7113 59.8203 17.7113 59.6991 17.702 59.5784C17.702 58.8144 17.3633 57.6152 16.0605 57.6152M14.8895 59.3898C14.8929 59.082 15.0074 58.7864 15.2107 58.5604C15.4141 58.3344 15.6917 58.194 15.99 58.1665C16.137 58.1723 16.2811 58.2099 16.413 58.2768C16.5449 58.3437 16.6617 58.4383 16.7557 58.5546C16.8498 58.6709 16.9189 58.8062 16.9588 58.9517C16.9987 59.0973 17.0083 59.2498 16.9871 59.3995L14.8895 59.3898Z" fill="black"></path><path fill-rule="evenodd" clip-rule="evenodd" d="M20.6035 56.9535L20.7446 57.5289L21.6758 57.0019H21.6947V61.9048H22.3954V56.2959H21.7793L20.6035 56.9535Z" fill="black"></path><path fill-rule="evenodd" clip-rule="evenodd" d="M26.1509 56.1982C25.9034 56.2039 25.6595 56.2597 25.433 56.3624C25.2066 56.4652 25.002 56.6129 24.8312 56.7971C24.6604 56.9812 24.5266 57.1983 24.4375 57.4357C24.3484 57.6731 24.3057 57.9263 24.312 58.1807C24.2978 58.5277 24.3899 58.8705 24.5754 59.1608C24.7609 59.4511 25.0303 59.6742 25.3456 59.7986C25.661 59.9231 26.0064 59.9426 26.3332 59.8545C26.6599 59.7663 26.9515 59.5749 27.1668 59.3073H27.1903C27.1261 59.8726 26.8754 60.3982 26.4801 60.7966C26.1746 61.1016 25.7793 61.2938 25.3561 61.343C25.1631 61.3724 24.9677 61.3821 24.7729 61.372V61.9958C24.9963 62 25.2196 61.9854 25.4407 61.9522C26.0258 61.8856 26.5731 61.6221 26.9975 61.2028C27.3187 60.8502 27.5675 60.4347 27.7291 59.9811C27.8907 59.5275 27.9618 59.0451 27.9381 58.5627C27.9381 57.1121 27.2609 56.1982 26.165 56.1982M27.148 58.7464C27.0343 58.9305 26.8763 59.0811 26.6892 59.1836C26.5021 59.2861 26.2923 59.3371 26.0804 59.3315C25.9344 59.3304 25.7903 59.2978 25.6573 59.2358C25.5244 59.1739 25.4056 59.084 25.3085 58.9719C25.2114 58.8598 25.1383 58.728 25.0939 58.5851C25.0494 58.4422 25.0346 58.2912 25.0504 58.142C25.0504 57.3442 25.4878 56.7785 26.0992 56.7785C26.8564 56.7785 27.2044 57.4989 27.195 58.466L27.1386 58.7464" fill="black"></path><path fill-rule="evenodd" clip-rule="evenodd" d="M31.1218 58.6265C30.7722 58.4181 30.3736 58.3128 29.9696 58.3219C29.8232 58.3229 29.677 58.3342 29.5322 58.3557L29.7391 56.9342H31.785V56.2959H29.217L28.8737 58.9698C29.1241 58.9285 29.3774 58.9091 29.6309 58.9118C30.6985 58.9118 31.1642 59.4195 31.1642 60.1593C31.1659 60.3277 31.1336 60.4947 31.0694 60.6496C31.0052 60.8046 30.9104 60.9442 30.7911 61.0596C30.6718 61.175 30.5305 61.2637 30.3761 61.3202C30.2218 61.3766 30.0577 61.3995 29.8943 61.3875C29.4903 61.3862 29.0935 61.278 28.742 61.0732L28.5586 61.6534C28.9658 61.8889 29.4272 62.0075 29.8943 61.9967C30.1507 62.0126 30.4075 61.9743 30.6489 61.8842C30.8904 61.7941 31.1113 61.6541 31.2982 61.4729C31.485 61.2917 31.6337 61.0731 31.7353 60.8306C31.8368 60.588 31.8889 60.3267 31.8885 60.0626C31.902 59.7718 31.8377 59.4828 31.7025 59.2271C31.5673 58.9713 31.3665 58.7585 31.1218 58.612" fill="black"></path><path fill-rule="evenodd" clip-rule="evenodd" d="M34.6099 56.1982C34.3624 56.2039 34.1185 56.2597 33.892 56.3624C33.6655 56.4652 33.461 56.6129 33.2902 56.7971C33.1194 56.9812 32.9856 57.1983 32.8965 57.4357C32.8074 57.6731 32.7647 57.9263 32.771 58.1807C32.7568 58.5277 32.8489 58.8705 33.0344 59.1608C33.2198 59.4511 33.4893 59.6742 33.8046 59.7986C34.12 59.9231 34.4654 59.9426 34.7921 59.8545C35.1189 59.7663 35.4105 59.5749 35.6258 59.3073V59.3073C35.5632 59.8721 35.3142 60.3977 34.9203 60.7966C34.6138 61.1001 34.2189 61.2921 33.7962 61.343C33.6017 61.3724 33.4048 61.3821 33.2083 61.372V61.9958C33.4317 62 33.6551 61.9854 33.8762 61.9522C34.4623 61.8845 35.0108 61.6213 35.4377 61.2028C35.7579 60.8496 36.0062 60.434 36.1677 59.9806C36.3293 59.5271 36.4009 59.045 36.3783 58.5627C36.3783 57.1121 35.701 56.1982 34.6052 56.1982M35.5882 58.7464C35.4753 58.9301 35.318 59.0805 35.1317 59.183C34.9454 59.2856 34.7365 59.3367 34.5252 59.3315C34.3791 59.3311 34.2346 59.299 34.1013 59.2373C33.968 59.1756 33.8488 59.0857 33.7516 58.9735C33.6544 58.8612 33.5814 58.7291 33.5372 58.5859C33.493 58.4426 33.4787 58.2914 33.4952 58.142C33.4952 57.3442 33.9326 56.7785 34.5394 56.7785C35.2966 56.7785 35.6446 57.4989 35.6352 58.466L35.5788 58.7464" fill="black"></path><path fill-rule="evenodd" clip-rule="evenodd" d="M14.9431 44.8963L15.3899 44.258L15.7473 43.6149L16.1001 42.8848L16.3681 42.1498L16.5469 41.3278L16.7256 40.501V38.8522L16.5469 38.0302L16.3681 37.2952L16.1001 36.5651L15.7473 35.8301L15.3005 35.1L14.7644 34.5487L14.1435 33.9975L13.6967 33.6349L13.17 33.2674L12.5492 32.9918L11.8343 32.808L11.0347 32.6243L9.96711 32.5373L8.80542 32.4454L7.39446 32.3535H0.15625V53.9673H5.58844V47.1979H9.15345L10.2211 47.106L11.1147 46.9223L11.9142 46.7385L12.6291 46.4678L13.2499 46.1921L13.8755 45.8247L14.4069 45.3411L14.9431 44.8963ZM11.2887 40.2254V40.5929L11.11 40.9603L10.9313 41.236L10.4845 41.7195L10.0377 42.0821L9.40743 42.2417L8.87126 42.3336H5.57903V37.2082H7.62962L8.69724 37.3L9.32277 37.3967L9.94829 37.5805L10.4798 37.8513L10.9266 38.3348L11.1053 38.6104L11.284 38.973V39.3405L11.3687 39.7999L11.2887 40.2254Z" fill="black"></path><path fill-rule="evenodd" clip-rule="evenodd" d="M35.6057 53.9646L29.6279 46.6391L30.3428 46.4602L31.053 46.2716L31.6785 46.0009L32.2147 45.6334L32.7461 45.2659L33.1929 44.8066L33.5504 44.352L33.9078 43.8685L34.4393 42.8628L34.8014 41.8812L35.0695 40.7787V38.9462L34.9801 38.1242L34.7121 37.394L34.444 36.5672L34.0865 35.8322L33.5551 35.1021L33.0189 34.459L32.4028 33.9126L31.8666 33.5451L31.3305 33.2695L30.6203 32.9939L29.9054 32.7183L29.1059 32.6264L28.1276 32.4475L25.6302 32.375H18.6836V53.9646H24.0264V47.0066H24.1158L29.1952 53.9646H35.6057ZM28.6591 42.5291L28.0335 42.8966L27.1446 43.1722L26.077 43.2593H24.0264V37.2103H26.077L26.8766 37.3022L27.5914 37.3989L28.2123 37.6697L28.7484 37.9453L29.1952 38.4288L29.4633 38.8833L29.6279 39.4974L29.7173 40.1357V40.6192L29.6279 41.0785L29.4539 41.6298L29.0965 42.0843L28.6591 42.5291Z" fill="black"></path><path fill-rule="evenodd" clip-rule="evenodd" d="M76.9454 40.682H75.2005L75.1629 40.5031L74.9841 39.6811L74.7161 38.7673L74.3586 38.0323L73.9118 37.2103L73.4697 36.3883L72.8442 35.7597L72.3127 35.1214L71.6872 34.5702L71.0664 34.0867L70.4409 33.724L69.7307 33.3421L68.3903 32.8875L67.1439 32.6119L65.8976 32.4282L64.7406 32.375H56.4395V53.9888H65.6107L67.0216 53.8002L68.2727 53.5294L69.4297 53.1619L70.4079 52.7074L71.3862 52.1562L72.1904 51.5131L72.9335 50.7491L73.5591 50.0142L74.0952 49.0955L74.5373 48.2735L74.8948 47.2677L75.0735 46.262L75.2616 45.5512H76.9454V53.9694H89.1737V49.1341H82.4011V45.4303H88.9855V40.595H82.4011V37.2103H89.1737V32.375H76.9454V40.682ZM69.82 43.2496V44.352L69.5472 45.4303L69.1945 46.4409L69.0158 46.8954L68.7477 47.2629L68.3903 47.7464L68.0375 48.1091L67.5907 48.3847L67.0546 48.6603L66.5231 48.844L65.8976 49.0278L65.1874 49.1148H62.0833V37.2103H64.4866L65.3755 37.3022L66.0904 37.3989L66.8053 37.5826L67.3367 37.8534L67.8071 38.129L68.2539 38.4965L68.7853 39.2266L69.0534 39.7101L69.3215 40.1937L69.6742 41.2913L69.8577 42.297L69.82 43.2496Z" fill="black"></path><path fill-rule="evenodd" clip-rule="evenodd" d="M97.5211 32.3535H91.9102V53.9673H104.026V49.1078H97.5211V32.3535Z" fill="black"></path><path fill-rule="evenodd" clip-rule="evenodd" d="M111.152 32.3535H105.541V53.9673H117.652V49.1078H111.152V32.3535Z" fill="black"></path><path fill-rule="evenodd" clip-rule="evenodd" d="M131.904 32.375H127.539L118.721 53.9888H124.689L125.846 50.8749H133.508L134.575 53.9888H140.623L131.904 32.375ZM127.455 46.4602L129.679 39.1444H129.764L131.993 46.4747L127.455 46.4602Z" fill="black"></path><path fill-rule="evenodd" clip-rule="evenodd" d="M41.3146 32.4473L34.7207 50.5796L41.578 46.2714L43.8966 40.0484L49.0607 53.9692H54.8504L47.1042 32.4473H41.3146Z" fill="black"></path><path fill-rule="evenodd" clip-rule="evenodd" d="M45.9768 46.4835L48.7188 53.9299L35.912 53.9879L35.2441 53.0547L45.9768 46.4835ZM67.7667 38.4521L67.2964 38.1765L66.7837 37.9009L66.0689 37.722L65.3587 37.6253L64.4651 37.5334L62.3439 37.5092V44.0465L68.4581 39.1484L68.2229 38.8196L67.7667 38.4521ZM68.2794 32.4757L68.5804 32.5385L69.9208 32.9979L70.6309 33.3605L71.2565 33.728L71.8773 34.2115L72.5028 34.7628L72.8367 35.1641L98.6667 14L68.2794 32.4757ZM54.1698 50.8498L56.0511 49.0898V40.2025L51.3479 43.1037L54.1698 50.8498Z" fill="#FE000C"></path><path d="M145.822 44.9465C145.855 44.463 146.147 44.1826 146.537 44.2116C146.632 44.218 146.724 44.2451 146.808 44.291C146.891 44.337 146.965 44.4007 147.022 44.4781C147.08 44.5554 147.122 44.6445 147.143 44.7394C147.165 44.8344 147.167 44.933 147.149 45.0287C147.153 45.1282 147.138 45.2277 147.103 45.3205C147.068 45.4134 147.014 45.4977 146.945 45.5679C146.877 45.6381 146.794 45.6927 146.704 45.7281C146.613 45.7635 146.516 45.7789 146.42 45.7734C146.325 45.7652 146.233 45.7365 146.151 45.6891C146.068 45.6417 145.996 45.5768 145.939 45.4986C145.883 45.4204 145.843 45.3307 145.823 45.2355C145.803 45.1403 145.803 45.0418 145.822 44.9465M143.471 44.5839C143.377 45.8652 144.303 46.6292 145.728 46.7404C146.023 46.7948 146.326 46.7863 146.618 46.7156C146.91 46.645 147.185 46.5135 147.426 46.3294C147.606 46.1736 147.75 45.9788 147.849 45.759C147.947 45.5392 147.997 45.2997 147.995 45.0578C148.028 44.8406 148.017 44.6188 147.963 44.4062C147.909 44.1936 147.812 43.9948 147.68 43.8223C147.547 43.6498 147.382 43.5073 147.193 43.4037C147.005 43.3001 146.797 43.2377 146.584 43.2203C145.695 43.1526 145.121 43.7474 145.051 44.729C145.016 45.0613 145.101 45.3953 145.291 45.667C144.703 45.5558 144.317 45.2318 144.35 44.6758C144.374 44.3066 144.534 43.9607 144.797 43.7087L144.101 43.1333C143.722 43.5184 143.498 44.0365 143.475 44.5839M143.057 40.3578C143.301 41.3684 144.035 41.8858 144.938 41.6537C145.879 41.4071 146.142 40.6238 145.935 39.7679C145.889 39.5723 145.818 39.3837 145.723 39.207L146.471 39.0717L146.942 40.9429L147.769 40.7302L147.116 38.0272L144.98 38.4431L144.755 39.091C144.908 39.299 145.022 39.5354 145.089 39.7873C145.197 40.2466 145.06 40.6189 144.693 40.7157C144.313 40.8124 144.03 40.5851 143.922 40.1306C143.844 39.7286 143.919 39.311 144.134 38.9653L143.315 38.5543C143.158 38.823 143.055 39.1219 143.013 39.4327C142.971 39.7435 142.991 40.0599 143.071 40.3627M143.447 35.1115C143.386 35.0351 143.342 34.9462 143.317 34.8509C143.293 34.7555 143.288 34.6558 143.304 34.5584C143.319 34.461 143.355 34.3682 143.408 34.286C143.461 34.2038 143.53 34.1341 143.612 34.0816V34.0816C143.692 34.0329 143.78 34.0019 143.873 33.9907C143.965 33.9794 144.058 33.9882 144.147 34.0165C144.236 34.0448 144.317 34.0918 144.387 34.1547C144.457 34.2176 144.513 34.2948 144.552 34.3814C144.614 34.459 144.658 34.5491 144.682 34.6458C144.707 34.7424 144.711 34.8433 144.695 34.9418C144.678 35.0402 144.641 35.1339 144.587 35.2165C144.532 35.2992 144.461 35.3689 144.378 35.421V35.421C144.298 35.4685 144.208 35.4982 144.115 35.508C144.023 35.5178 143.929 35.5076 143.84 35.478C143.752 35.4484 143.67 35.4001 143.601 35.3361C143.532 35.2722 143.476 35.194 143.438 35.1067M141.288 36.243C141.942 37.3454 143.123 37.4131 144.345 36.6492C144.621 36.5161 144.866 36.3252 145.066 36.0886C145.265 35.8521 145.414 35.5753 145.502 35.2759C145.561 35.0423 145.57 34.7981 145.527 34.5608C145.484 34.3234 145.39 34.0988 145.253 33.9027C145.157 33.7059 145.022 33.5317 144.857 33.3911C144.692 33.2505 144.501 33.1465 144.295 33.0856C144.089 33.0247 143.873 33.0084 143.661 33.0375C143.449 33.0666 143.245 33.1406 143.061 33.2548V33.2548C142.3 33.7383 142.168 34.5555 142.666 35.3968C142.824 35.69 143.082 35.9123 143.391 36.0206C142.85 36.2817 142.351 36.2478 142.069 35.774C141.885 35.459 141.822 35.0852 141.89 34.7247L140.997 34.6715C140.907 35.2085 141.016 35.7606 141.302 36.2188M138.951 33.3176L139.685 33.9801L142.671 30.5954L142.201 30.1118L141.011 29.5219L140.625 30.2666L141.321 30.6534L138.951 33.3176ZM132.597 29.9571L135.795 31.016L136.058 30.1747L133.782 29.4204L134.064 28.5114L136.044 29.169L136.308 28.3228L134.328 27.67L134.605 26.7948L136.863 27.5395L137.126 26.6933L133.961 25.644L132.597 29.9571ZM129.775 29.8314C130.116 29.847 130.457 29.7819 130.77 29.6411C131.083 29.5003 131.36 29.2875 131.581 29.0191L130.965 28.3808C130.818 28.5463 130.639 28.6789 130.44 28.7704C130.241 28.8619 130.026 28.9103 129.808 28.9127C129.632 28.9084 129.458 28.8678 129.298 28.7932C129.137 28.7186 128.993 28.6116 128.874 28.4785C128.755 28.3454 128.662 28.1889 128.603 28.0185C128.544 27.848 128.518 27.667 128.529 27.4863V27.4863C128.521 27.3076 128.548 27.1291 128.609 26.9615C128.67 26.7938 128.762 26.6403 128.881 26.5101C129.001 26.3798 129.144 26.2755 129.303 26.2031C129.462 26.1308 129.634 26.0919 129.808 26.0889C130.224 26.0985 130.621 26.2715 130.918 26.5724L131.539 25.8423C131.314 25.6052 131.042 25.4201 130.742 25.2992C130.442 25.1783 130.12 25.1244 129.798 25.1412C129.496 25.1333 129.195 25.1884 128.914 25.3032C128.632 25.4181 128.377 25.5902 128.162 25.8093C127.947 26.0284 127.778 26.2899 127.664 26.5781C127.55 26.8663 127.493 27.1752 127.499 27.4863C127.493 27.7935 127.547 28.0989 127.659 28.384C127.771 28.6691 127.937 28.9281 128.148 29.1457C128.359 29.3632 128.611 29.5348 128.888 29.6501C129.165 29.7654 129.462 29.8221 129.761 29.8169M122.706 31.4464L123.6 31.1031L122.617 28.405L125.599 30.3391L126.375 30.0393L124.827 25.7988L123.929 26.1421L124.87 28.7531L121.982 26.8867L121.145 27.2107L122.706 31.4464ZM120.825 32.897L121.62 32.3748L119.033 28.7096L118.247 29.2947L120.825 32.897ZM118.878 34.894C119.508 34.159 119.578 33.3128 118.92 32.7181C118.346 32.1959 117.772 32.3651 117.006 32.9018C116.357 33.3563 116.159 33.4385 115.943 33.2403C115.783 33.0952 115.783 32.8293 116.028 32.544C116.322 32.2392 116.699 32.0335 117.109 31.9541L116.893 31.0692C116.308 31.1746 115.777 31.4878 115.393 31.9541C114.8 32.6455 114.772 33.5014 115.393 34.0478C116.046 34.6425 116.611 34.3669 117.368 33.835C117.998 33.395 118.191 33.3515 118.374 33.5304C118.567 33.7045 118.53 34.0139 118.266 34.304C117.932 34.6705 117.482 34.902 116.996 34.9568L117.133 35.8658C117.817 35.7795 118.446 35.4348 118.896 34.8988" fill="#333333"></path><path d="M143.787 51.6191L143.443 52.2573L144.422 52.649L143.457 53.0842L143.829 53.7224L144.652 53.0503L144.539 54.1238L145.263 54.1044L145.104 53.031L145.95 53.6741L146.293 53.031L145.315 52.6442L146.279 52.2041L145.908 51.5659L145.085 52.238L145.193 51.1646L144.473 51.1839L144.629 52.2573L143.787 51.6191Z" fill="#FE1A0E"></path></g><defs><clipPath id="clip0_1243_195"><rect width="148" height="82" fill="white"></rect></clipPath></defs></svg>